0
SECTION
2
HEADER
9
$INSUNITS
70
4
9
$ACADVER
1
AC1014
9
$HANDSEED
5
FFFF
0
ENDSEC
0
SECTION
2
TABLES
0
TABLE
2
VPORT
5
8
100
AcDbSymbolTable
0
ENDTAB
0
TABLE
2
LTYPE
5
5
100
AcDbSymbolTable
0
LTYPE
5
14
100
AcDbSymbolTableRecord
100
AcDbLinetypeTableRecord
2
BYBLOCK
70
0
0
LTYPE
5
15
100
AcDbSymbolTableRecord
100
AcDbLinetypeTableRecord
2
BYLAYER
70
0
0
ENDTAB
0
TABLE
2
LAYER
5
2
100
AcDbSymbolTable
70
2
0
LAYER
5
50
100
AcDbSymbolTableRecord
100
AcDbLayerTableRecord
2
0
70
0
6
CONTINUOUS
0
ENDTAB
0
TABLE
2
STYLE
5
3
100
AcDbSymbolTable
70
1
0
STYLE
5
11
100
AcDbSymbolTableRecord
100
AcDbTextStyleTableRecord
2
STANDARD
70
0
0
ENDTAB
0
TABLE
2
VIEW
5
6
100
AcDbSymbolTable
70
0
0
ENDTAB
0
TABLE
2
UCS
5
7
100
AcDbSymbolTable
70
0
0
ENDTAB
0
TABLE
2
APPID
5
9
100
AcDbSymbolTable
70
2
0
APPID
5
12
100
AcDbSymbolTableRecord
100
AcDbRegAppTableRecord
2
ACAD
70
0
0
ENDTAB
0
TABLE
2
DIMSTYLE
5
A
100
AcDbSymbolTable
70
1
0
ENDTAB
0
TABLE
2
BLOCK_RECORD
5
1
100
AcDbSymbolTable
70
1
0
BLOCK_RECORD
5
1F
100
AcDbSymbolTableRecord
100
AcDbBlockTableRecord
2
*MODEL_SPACE
0
BLOCK_RECORD
5
1B
100
AcDbSymbolTableRecord
100
AcDbBlockTableRecord
2
*PAPER_SPACE
0
ENDTAB
0
ENDSEC
0
SECTION
2
BLOCKS
0
BLOCK
5
20
100
AcDbEntity
100
AcDbBlockBegin
2
*MODEL_SPACE
0
ENDBLK
5
21
100
AcDbEntity
100
AcDbBlockEnd
0
BLOCK
5
1C
100
AcDbEntity
100
AcDbBlockBegin
2
*PAPER_SPACE
0
ENDBLK
5
1D
100
AcDbEntity
100
AcDbBlockEnd
0
ENDSEC
0
SECTION
2
ENTITIES
0
LWPOLYLINE
5
100
100
AcDbEntity
8
0
100
AcDbPolyline
90
6
70
1
43
0.0
10
-228.48044173297296
20
-110.19149898189536
10
-231.23043106702755
20
-108.60400296078134
10
-231.23043106702755
20
-105.4290109185533
10
-228.48044173297296
20
-103.8415148974393
10
-225.73144421773645
20
-105.4290109185533
10
-225.73144421773645
20
-108.60400296078134
0
CIRCLE
5
101
100
AcDbEntity
8
0
100
AcDbCircle
10
-154.28360120089292
20
-139.49722531808519
30
0
40
5.9999999999999787
210
0
220
-0
230
1
0
CIRCLE
5
102
100
AcDbEntity
8
0
100
AcDbCircle
10
-428.17332043965234
20
-182.98216235147828
30
0
40
3.0000000000000426
210
0
220
-0
230
1
0
CIRCLE
5
103
100
AcDbEntity
8
0
100
AcDbCircle
10
-460.29998971149325
20
-256.99999425560236
30
0
40
5.9999998658895484
210
0
220
-0
230
1
0
LWPOLYLINE
5
104
100
AcDbEntity
8
0
100
AcDbPolyline
90
6
70
1
43
0.0
10
-23.310240417387472
20
-94.043265864352946
10
-23.310240417387472
20
-96.456259721079022
10
-25.399935910029868
20
-97.662756649442102
10
-27.489630210582341
20
-96.456259721079022
10
-27.489630210582341
20
-94.043265864352918
10
-25.399935910029868
20
-92.836768935989866
0
LWPOLYLINE
5
105
100
AcDbEntity
8
0
100
AcDbPolyline
90
6
70
1
43
0.0
10
-12.699967741117771
20
-21.462951212239169
10
-14.789663233760166
20
-20.256451303651303
10
-14.789663233760166
20
-17.843461023194969
10
-12.699967741117771
20
-16.6369611146071
10
-10.610272248475374
20
-17.843461023194969
10
-10.610272248475374
20
-20.256451303651303
0
LWPOLYLINE
5
106
100
AcDbEntity
8
0
100
AcDbPolyline
90
19
70
1
43
0.0
10
4.2779437325890513e-07
20
-6.9397150460841495
10
-472.16503614928405
20
-187.01193601283876
10
-480.80014086937103
20
-269.16948168123713
10
-474.68492935903618
20
-269.12948468005447
10
-444.54279254026812
20
-257.7397234748949
10
-421.98063103861733
20
-192.09020594099707
10
-223.99692476587734
20
-118.89875029532702
10
-175.27395884214982
20
-155.99152954934684
10
-133.67997677489868
20
-140.27446760929772
10
-129.42866938858424
20
-136.58223609299537
10
-38.099904078941975
20
-114.29971504608416
10
-37.701161185969653
20
-114.29971453955943
10
-37.697149084279729
20
-114.29873991652505
10
-37.687877120597108
20
-114.29971504608416
10
4.2779437325890513e-07
20
-114.29971504608416
10
4.2779435327489068e-07
20
-78.874669597933419
10
-19.049951825573814
20
-78.874669597933419
10
-19.049951825573814
20
-53.474733260109197
10
4.2779435327489068e-07
20
-53.474733260109197
0
ENDSEC
0
SECTION
2
OBJECTS
0
DICTIONARY
5
C
100
AcDbDictionary
3
ACAD_GROUP
350
D
3
ACAD_MLINESTYLE
350
17
0
DICTIONARY
5
D
100
AcDbDictionary
0
DICTIONARY
5
1A
330
C
100
AcDbDictionary
0
DICTIONARY
5
17
100
AcDbDictionary
0
ENDSEC
0
EOF
