<?xml version="1.0" encoding="UTF-8" standalone="no"?>
<!-- Created with Inkscape (http://www.inkscape.org/) -->

<svg
   width="210mm"
   height="297mm"
   viewBox="0 0 210 297"
   version="1.1"
   id="svg5"
   inkscape:version="1.1 (c68e22c387, 2021-05-23)"
   sodipodi:docname="Chuni_Penguin.svg"
   xmlns:inkscape="http://www.inkscape.org/namespaces/inkscape"
   xmlns:sodipodi="http://sodipodi.sourceforge.net/DTD/sodipodi-0.dtd"
   xmlns="http://www.w3.org/2000/svg"
   xmlns:svg="http://www.w3.org/2000/svg">
  <sodipodi:namedview
     id="namedview7"
     pagecolor="#ffffff"
     bordercolor="#666666"
     borderopacity="1.0"
     inkscape:pageshadow="2"
     inkscape:pageopacity="0.0"
     inkscape:pagecheckerboard="0"
     inkscape:document-units="mm"
     showgrid="false"
     inkscape:zoom="0.77771465"
     inkscape:cx="478.32454"
     inkscape:cy="670.55443"
     inkscape:window-width="2560"
     inkscape:window-height="1361"
     inkscape:window-x="1341"
     inkscape:window-y="271"
     inkscape:window-maximized="1"
     inkscape:current-layer="layer1" />
  <defs
     id="defs2" />
  <g
     inkscape:label="Layer 1"
     inkscape:groupmode="layer"
     id="layer1">
    <path
       style="fill:#000000;stroke-width:0.264583"
       d="m 45.360562,140.31658 c -2.57653,-0.63673 -3.55444,-1.4818 -4.98605,-4.30872 -0.87496,-1.72775 -1.75854,-4.9181 -1.98429,-7.16468 l -0.17341,-1.72568 -2.24896,-0.46467 c -2.85847,-0.5906 -7.85009,-2.11763 -10.80621,-3.30582 -4.17893,-1.67971 -10.58159,-6.05377 -13.30419,-9.08895 -3.09085,-3.4457 -6.40283,-9.51045 -7.23973,-13.25705 -1.24522,-5.574591 -0.56794,-13.936821 1.71952,-21.230701 l 0.80837,-2.57759 2.17414,1.7153 c 1.19578,0.94341 2.30503,1.71637 2.46501,1.71769 0.18241,0.002 0.35025,-1.00885 0.45014,-2.70959 0.25379,-4.32146 0.8493,-6.87204 2.30111,-9.85573 0.70808,-1.45521 1.55233,-3.08403 1.87611,-3.61961 l 0.5887,-0.97377 -1.0876,-1.80435 c -2.42177,-4.01777 -5.1221,-10.77361 -5.98088,-14.9633 -0.61353,-2.99323 -1.24983,-8.30151 -1.30173,-10.859645 -0.0481,-2.369349 0.12855,-2.821559 1.10638,-2.832571 0.61195,-0.0069 3.43014,3.143324 5.18871,5.800035 3.33298,5.035201 5.31358,9.035091 6.21014,12.541591 l 0.46259,1.80921 0.54559,-1.54463 c 0.30008,-0.84955 1.2738,-3.80682 2.16384,-6.57171 1.8077,-5.615664 2.46857,-6.776526 4.90505,-8.616087 0.8048,-0.607632 1.46328,-1.182264 1.46328,-1.276961 0,-0.0947 0.53765,-0.465884 1.19479,-0.82486 0.77783,-0.424908 1.14506,-0.782299 1.05228,-1.024086 -0.10425,-0.271666 -0.0521,-0.29881 0.19427,-0.101079 0.23235,0.186495 0.99315,0.140137 2.45345,-0.1495 1.16417,-0.230902 2.15396,-0.442452 2.19954,-0.470111 0.2863,-0.173739 0.84742,-3.270206 1.11349,-6.144718 0.59237,-6.399768 -0.77321,-13.284767 -4.27708,-21.564201 -0.7495,-1.771039 -1.40674,-3.271664 -1.46052,-3.334723 -0.72311,-0.84779403 -2.46402,7.29472 -2.457,11.491737 0.007,4.264974 0.59268,7.681837 1.6936,9.882814 0.53517,1.069923 0.93262,1.985729 0.88323,2.035124 -0.0494,0.0494 -0.56211,-0.815857 -1.13936,-1.922783 -0.57726,-1.106925 -1.64129,-2.913957 -2.36453,-4.015625 -1.43301,-2.182846 -5.18368,-6.162178 -5.35374,-5.680141 -0.0581,0.164664 0.48751,2.098691 1.21246,4.297838 1.35644,4.114783 3.77993,9.457517 5.92578,13.063711 0.67109,1.127786 1.17088,2.050521 1.11065,2.050521 -0.35651,0 -2.58596,-3.810786 -4.2393,-7.246209 -1.83073,-3.804031 -3.11398,-7.222757 -4.30734,-11.475321 l -0.53893,-1.920487 1.20315,0.862154 c 1.44041,1.032176 3.43572,3.171648 4.91748,5.272779 0.59465,0.843222 1.10458,1.505473 1.13317,1.471669 0.0286,-0.0338 -0.0649,-0.894898 -0.20778,-1.913544 -0.14288,-1.018646 -0.20076,-3.638021 -0.12864,-5.820834 0.1082,-3.274441 0.27015,-4.501054 0.92572,-7.011458 0.95845,-3.670217 1.32714,-4.66309703 1.61254,-4.34256403 0.39437,0.44291703 2.87535,6.29157503 3.81653,8.99706803 1.10046,3.163359 1.95811,6.934251 2.38574,10.48957 l 0.30989,2.576366 1.31091,-2.311782 c 0.72101,-1.271481 1.82849,-3.264283 2.46107,-4.42845 l 1.15016,-2.116666 -0.11596,3.307291 c -0.16856,4.807422 -1.41553,9.664696 -3.58391,13.960235 l -0.83301,1.650183 1.12828,-7.94e-4 c 1.84985,-0.0011 11.57737,0.782569 13.42,1.081262 2.74347,0.444717 5.32227,1.794317 7.40147,3.873524 2.04194,2.041948 3.00377,3.745308 3.73976,6.623008 0.6422,2.51097 0.64818,3.85559 0.0212,4.77166 -0.6901,1.00837 -2.66268,4.45773 -3.36047,5.87634 -0.44816,0.91111 -2.23431,7.07107 -2.23431,7.70554 0,0.0629 0.98226,-0.84893 2.18281,-2.02623 4.90539,-4.81042 12.81159,-9.64806 15.767915,-9.64806 1.47115,0 1.54216,0.5608 0.37696,2.97701 -1.37646,2.85431 -3.704055,5.94332 -6.308205,8.37179 -2.25219,2.10025 -8.94812,7.55062 -11.05534,8.99886 l -1.28482,0.88303 0.14254,1.88622 c 1.05437,13.9523 0.76604,18.2708 -1.46243,21.90382 l -0.75581,1.23218 -0.0875,5.514691 c -0.0777,4.89311 -0.16327,5.80033 -0.7594,8.04886 -1.46427,5.52313 -5.40097,11.20342 -9.91856,14.31161 -1.43892,0.99 -3.89845,2.05653 -4.76363,2.06565 -0.34163,0.004 -0.59532,0.17028 -0.59532,0.39112 0,0.9326 1.33879,3.93583 2.44654,5.48821 1.77609,2.48897 2.99567,3.46846 5.5213,4.43438 3.00481,1.14919 3.54801,1.50961 3.09622,2.05439 -0.92001,1.10938 -4.35307,1.47038 -7.2276,0.76 z m 5.61159,-0.56018 c 1.09101,-0.45585 0.96951,-0.70211 -0.5845,-1.1847 -3.38738,-1.05193 -5.79816,-3.04802 -7.87515,-6.52052 -0.46609,-0.77926 -0.99403,-1.41683 -1.17319,-1.41683 -0.56233,0 -0.87363,0.96299 -0.87106,2.69458 0.005,3.05093 2.11369,5.73763 4.94254,6.29595 0.8455,0.16687 1.65633,0.34599 1.80186,0.39805 0.69746,0.24949 2.89784,0.0935 3.7595,-0.26653 z m -4.181,-17.99612 c 2.24782,-0.52985 4.61625,-1.8224 5.73567,-3.13019 1.30426,-1.52374 3.43914,-6.05085 3.94514,-8.36588 0.53561,-2.45045 0.9451,-8.29602 0.7379,-10.533561 l -0.1544,-1.66723 -0.83296,0.80734 c -0.93803,0.90917 -1.50063,1.01105 -2.03215,0.36802 -0.28058,-0.33945 -0.34785,-1.38505 -0.29595,-4.59986 l 0.0672,-4.16056 -1.52238,0.61061 c -1.84502,0.74002 -5.09227,1.4351 -7.63058,1.63335 -2.02436,0.1581 -6.32974,-0.56914 -9.10356,-1.53773 -3.82227,-1.3347 -9.49014,-5.97587 -11.35698,-9.29972 -0.46996,-0.83675 -0.90418,-1.52136 -0.96493,-1.52136 -0.0607,0 -0.69402,1.16086 -1.40725,2.57969 -2.06597,4.10981 -3.95687,7.28354 -4.80795,8.06979 -0.92398,0.8536 -1.89667,0.9331 -2.61595,0.21382 -0.47724,-0.47723 -1.60289,-3.57343 -1.60289,-4.40888 0,-0.67313 -0.42472,-0.3825 -0.90119,0.61668 -1.12866,2.36682 -1.52083,6.99122 -0.8208,9.6788 0.64278,2.46782 1.54537,3.884761 4.05805,6.370561 l 2.37607,2.35067 0.45495,-0.89546 c 1.11774,-2.20001 2.80659,-4.4242 3.67071,-4.83425 1.01669,-0.482461 2.33677,-0.553841 3.06221,-0.165601 0.77953,0.417191 1.59375,1.965811 1.59375,3.031241 0,1.04408 -1.21106,2.86049 -3.67725,5.51533 l -1.17714,1.26719 1.19117,1.24636 c 0.65514,0.68549 1.81617,2.10686 2.58008,3.15858 3.0193,4.1569 5.73858,5.77177 12.98939,7.71389 1.49139,0.39946 6.55799,0.33246 8.44205,-0.11164 z m -25.08669,-13.27811 c 2.02161,-1.90709 4.20923,-4.75378 4.20923,-5.47737 0,-0.61217 -0.63147,-1.77491 -1.28525,-2.36657 -0.42865,-0.38793 -0.7602,-0.45358 -1.54605,-0.30616 -1.47448,0.27662 -2.76258,1.8088 -4.49793,5.35023 l -1.50156,3.06431 0.84769,0.75741 c 0.46623,0.41657 1.08171,0.75741 1.36773,0.75741 0.28602,0 1.36878,-0.80067 2.40614,-1.77926 z m 35.34716,-17.955421 c -0.0401,-5.2485 -0.11177,-6.38325 -0.38012,-6.01636 -0.24277,0.33193 -0.33073,2.13609 -0.33073,6.784 0,5.47426 0.0515,6.28911 0.38012,6.01636 0.31404,-0.26063 0.37154,-1.43998 0.33073,-6.784 z m -10.52135,1.49696 c 0.31957,-0.20227 0.30744,-0.34251 -0.0809,-0.93515 -0.29105,-0.44419 -0.6195,-0.64947 -0.90512,-0.56569 -0.24657,0.0723 -1.16268,0.30395 -2.0358,0.5147 -0.87313,0.21076 -1.94469,0.47608 -2.38125,0.5896 l -0.79375,0.20641 0.92604,0.18326 c 1.38535,0.27416 4.84132,0.27866 5.27075,0.007 z m 3.66693,-0.67537 c 2.50029,-0.63217 3.00785,-0.91613 2.80656,-1.57017 -0.30498,-0.99095 -0.90421,-2.00632 -1.18405,-2.00632 -0.21261,0 -4.5647,2.2205 -4.9573,2.52929 -0.0471,0.037 0.10791,0.44168 0.34448,0.89917 0.2951,0.57066 0.57119,0.79041 0.87941,0.69998 0.24709,-0.0725 1.197,-0.32088 2.1109,-0.55195 z m -10.4068,-0.6978 c 0.90952,-1.0809 1.38356,-2.02127 1.59969,-3.17335 0.14613,-0.77893 0.0565,-1.0798 -0.52907,-1.77569 -0.38775,-0.46081 -0.7876,-1.14669 -0.88855,-1.52417 -0.15642,-0.58487 -0.51484,-0.79317 -2.42481,-1.40917 -1.2327,-0.39756 -2.51792,-0.872 -2.85606,-1.05431 -0.58198,-0.31379 -0.61022,-0.29159 -0.52916,0.41587 0.0673,0.58724 0.36902,0.90188 1.40854,1.46876 1.37114,0.74772 1.23659,1.04478 -0.14874,0.3284 -0.76578,-0.396 -0.79055,-0.38834 -1.06954,0.33073 -0.15708,0.40486 -0.3952,1.39095 -0.52916,2.19132 -0.13396,0.80036 -0.31384,1.8335 -0.39974,2.29585 -0.14417,0.77597 -0.0727,0.88325 0.92953,1.39453 1.08595,0.55401 3.47498,1.28648 4.30298,1.31929 0.24173,0.01 0.75207,-0.35405 1.13409,-0.80806 z m 4.72984,-0.27772 c 1.74057,-0.46484 2.11336,-0.66321 2.34188,-1.24618 0.85147,-2.17214 0.37552,-3.9967 -1.04464,-4.00468 -0.43221,-0.002 -0.59449,-0.0848 -0.40474,-0.20542 0.69314,-0.44063 -0.16393,-0.77675 -2.36728,-0.92837 -2.60819,-0.17948 -2.80708,-0.0166 -1.65365,1.35417 0.42008,0.49924 0.66052,1.11009 0.65888,1.67395 -0.003,0.92457 -1.05039,3.46791 -1.55773,3.78146 -0.16047,0.0992 -0.29177,0.2797 -0.29177,0.40117 0,0.24121 1.13662,0.0238 4.31905,-0.8261 z m -0.81332,-5.16461 c 0.25466,-0.0666 0.67138,-0.0666 0.92604,0 0.25466,0.0666 0.0463,0.121 -0.46302,0.121 -0.50933,0 -0.71769,-0.0545 -0.46302,-0.121 z m 10.51718,4.05577 c 0,-0.34349 0.0757,-1.17693 0.16826,-1.85208 0.18914,-1.37993 0.0172,-1.48587 -1.02389,-0.63093 l -0.72334,0.594 0.59105,1.25657 c 0.64839,1.37846 0.98792,1.59582 0.98792,0.63244 z m -37.53569,-3.07963 c 1.40617,-2.01794 3.80164,-6.08071 4.91409,-8.33438 0.65638,-1.32974 0.734,-1.68235 0.47804,-2.17166 -0.29198,-0.55818 -0.33244,-0.52875 -0.90942,0.66146 -1.03897,2.14318 -4.4793,7.93655 -5.87251,9.88907 -1.0292,1.44236 -1.29651,2.0149 -1.17212,2.51052 l 0.16114,0.64203 0.60119,-0.73863 c 0.33065,-0.40624 1.14047,-1.51253 1.79959,-2.45841 z m 33.69924,1.74551 c 2.28365,-1.22741 2.69651,-1.55418 3.01612,-2.38716 0.31617,-0.82403 0.31661,-1.06539 0.003,-1.65137 -0.59166,-1.10554 -1.37619,-1.31627 -2.34145,-0.62895 -0.45068,0.32091 -1.41297,0.79251 -2.13843,1.04798 -0.72545,0.25548 -1.37973,0.52524 -1.45395,0.59946 -0.0742,0.0742 0.0521,0.58259 0.28069,1.12972 0.37226,0.89094 0.3743,1.1161 0.0195,2.15729 -0.21786,0.63938 -0.31404,1.16085 -0.21373,1.1588 0.1003,-0.002 1.373,-0.64364 2.82821,-1.42577 z m -17.04747,-1.72959 c 0.11727,-0.80912 0.29317,-1.79367 0.39089,-2.18789 0.15271,-0.61611 -0.005,-0.89477 -1.12142,-1.98438 -0.71449,-0.69718 -1.5828,-1.77363 -1.92957,-2.39209 -0.34678,-0.61847 -0.79387,-1.12448 -0.99353,-1.12448 -0.19967,0 -0.60508,0.54719 -0.90092,1.21597 l -0.53788,1.21597 0.69312,1.59819 c 0.38121,0.879 0.64438,1.64692 0.58481,1.70649 -0.0596,0.0596 -0.49476,-0.57646 -0.96709,-1.41339 l -0.85879,-1.52168 -0.62847,0.73064 c -1.05933,1.23154 -0.84853,2.02792 0.98649,3.72682 0.88824,0.82235 2.22482,1.90587 2.97018,2.40783 l 1.3552,0.91265 0.37188,-0.70976 c 0.20454,-0.39036 0.46783,-1.37176 0.5851,-2.18089 z m 21.76917,-3.32322 c 0.50694,-2.59002 0.81248,-4.89479 0.6489,-4.89479 -0.0668,0 -0.51746,0.56555 -1.00138,1.25677 -0.48391,0.69123 -1.22464,1.62599 -1.64605,2.07726 l -0.76621,0.82049 0.69633,0.45625 c 0.78082,0.51161 1.46565,1.8938 1.24815,2.51913 -0.0971,0.27907 -0.0549,0.32592 0.13155,0.14614 0.15094,-0.14552 0.46085,-1.21708 0.68871,-2.38125 z m -6.73513,1.15276 c 0.75044,-0.31187 1.33186,-0.59915 1.29205,-0.63842 -0.20238,-0.19961 -3.22312,0.60353 -3.31581,0.8816 -0.15815,0.47444 0.4821,0.39751 2.02376,-0.24318 z m 9.16361,-1.84261 c 0.64108,-1.24903 1.08174,-3.72914 1.84266,-10.37085 0.3801,-3.31772 0.22627,-5.75394 -0.38726,-6.13312 -0.2481,-0.15333 -1.06496,1.75076 -1.06496,2.48241 0,0.27027 0.17859,0.63963 0.39688,0.82079 0.4269,0.3543 0.48676,1.93422 0.12531,3.30729 -0.13112,0.49809 -0.15733,0.15005 -0.0704,-0.93438 0.1081,-1.34808 0.0501,-1.80156 -0.26372,-2.06201 -0.34525,-0.28653 -0.42416,-0.19155 -0.55654,0.6698 -0.0848,0.55202 -0.38693,2.49195 -0.67131,4.31097 -0.79158,5.06318 -0.91192,6.35 -0.59385,6.35 0.42956,0 0.68052,-0.5289 1.00436,-2.11667 0.21411,-1.04973 0.30626,-1.23355 0.33073,-0.65971 0.0528,1.23809 -0.40618,2.49787 -1.11248,3.05345 -0.72895,0.57339 -1.02817,1.90358 -0.65188,2.89793 0.24667,0.6518 0.25613,0.65374 0.64853,0.13229 0.21902,-0.29104 0.67978,-1.07773 1.0239,-1.74819 z m 0.30716,-6.98306 c 0.0816,-1.01865 0.19331,-1.9017 0.24815,-1.96233 0.18394,-0.20337 0.0717,1.68646 -0.16369,2.75608 -0.17899,0.81334 -0.19855,0.6296 -0.0845,-0.79375 z m -16.34671,7.47448 c 0.21238,-0.56027 0.35151,-0.59026 2.36315,-0.50938 1.83473,0.0737 2.16039,0.15807 2.29916,0.59531 0.2286,0.72026 0.60579,0.6349 0.46434,-0.10508 -0.1067,-0.55815 0.024,-0.64572 1.42575,-0.95542 0.84877,-0.18753 1.71974,-0.43727 1.9355,-0.55498 0.28207,-0.1539 0.481,-0.0156 0.70804,0.49239 0.28146,0.6297 0.29962,0.56274 0.16724,-0.61649 -0.17589,-1.56678 -0.63541,-2.60398 -0.53745,-1.2131 0.0626,0.88826 0.0368,0.91173 -1.52386,1.38547 -0.87313,0.26504 -1.80762,0.48352 -2.07666,0.4855 -0.47207,0.003 -0.47143,-0.0265 0.0181,-0.85631 0.73212,-1.24113 0.84933,-1.90222 0.54783,-3.09003 -0.20795,-0.81926 -0.17276,-1.32963 0.15877,-2.30261 0.23426,-0.68754 0.41953,-1.49674 0.4117,-1.79824 -0.008,-0.3015 -0.25088,0.1662 -0.54012,1.03932 -0.38947,1.17568 -0.48508,1.96501 -0.36853,3.04271 0.1289,1.19198 0.0471,1.68184 -0.45206,2.70809 -0.6918,1.42221 -1.43588,1.71929 -3.52255,1.40638 -1.04694,-0.157 -1.17527,-0.24794 -1.06878,-0.75738 0.70635,-3.37936 1.00208,-4.49586 1.45562,-5.49554 0.29165,-0.64286 0.52071,-1.4665 0.50901,-1.8303 -0.0197,-0.61152 -0.0375,-0.60153 -0.23592,0.13229 -0.11805,0.43656 -0.51061,1.50813 -0.87234,2.38125 -0.36174,0.87313 -0.80872,2.45578 -0.99329,3.517 -0.2017,1.15969 -0.44983,1.88655 -0.62193,1.82185 -0.15748,-0.0592 -0.97433,-0.30673 -1.81521,-0.55002 -1.93303,-0.5593 -3.26234,-1.31467 -3.13522,-1.78157 0.32946,-1.21014 0.30574,-1.37967 -0.0958,-0.68431 -0.25238,0.43711 -0.55371,0.66278 -0.74281,0.55629 -0.71008,-0.39986 -3.09628,-2.29421 -3.09628,-2.45806 0,-0.0968 0.60535,-0.62787 1.34522,-1.18024 0.73988,-0.55237 1.27966,-1.06988 1.19952,-1.15002 -0.0801,-0.0801 -0.56171,0.21953 -1.07014,0.66593 -0.50842,0.44641 -1.4703,1.13156 -2.1375,1.52256 -1.17715,0.68986 -1.53299,1.25543 -0.41263,0.65583 0.63941,-0.3422 0.70532,-0.31043 2.66303,1.28334 1.30982,1.06634 1.44986,1.27903 1.40167,2.12889 l -0.0535,0.9442 0.28974,-0.85814 0.28975,-0.85813 0.82213,0.50341 c 0.45217,0.27687 1.68473,0.76375 2.73903,1.08194 1.78979,0.54017 1.90631,0.62071 1.75725,1.21462 -0.20175,0.80383 0.10018,0.83453 0.40106,0.0408 z m -15.58459,0.0864 c 0,-0.13435 0.30138,-0.60246 0.66975,-1.04023 l 0.66975,-0.79595 -0.93434,-1.4606 c -0.51388,-0.80333 -0.93433,-1.57835 -0.93433,-1.72228 0,-0.14392 -0.12003,-0.33585 -0.26672,-0.42652 -0.1467,-0.0907 -0.51639,0.40832 -0.82153,1.10886 l -0.55481,1.27371 0.87394,1.65365 c 0.7942,1.50276 1.29829,2.04998 1.29829,1.40936 z m 25.63407,-2.18088 c -0.11884,-0.75176 -0.32119,-1.47195 -0.44967,-1.60043 -0.13508,-0.13508 -0.14553,0.30189 -0.0248,1.0361 0.11486,0.69834 0.21593,1.41853 0.2246,1.60043 0.009,0.1819 0.11705,0.33073 0.24085,0.33073 0.12378,0 0.12783,-0.61507 0.009,-1.36683 z m -18.04994,0.68884 c 0.0421,-0.13643 -0.41816,-0.59845 -1.02283,-1.02673 -1.09746,-0.77729 -1.11469,-0.66408 -0.10913,0.71692 0.51303,0.70457 0.97136,0.83001 1.13196,0.30981 z m -4.6021,-2.84331 0.73308,-0.76368 -1.37349,-2.89241 c -0.75542,-1.59083 -1.45729,-2.7996 -1.55972,-2.68616 -0.27281,0.30216 -1.31107,3.67211 -1.31107,4.25546 0,0.27443 0.49297,1.26157 1.09548,2.19363 0.99572,1.54035 1.12222,1.64742 1.38906,1.17575 0.16147,-0.28541 0.62347,-0.86257 1.02666,-1.28259 z m 21.8888,-0.0183 c 0,-0.055 -0.18482,-0.54232 -0.41071,-1.08296 -0.2259,-0.54064 -0.36934,-1.1071 -0.31877,-1.25881 0.0506,-0.15171 0.25444,0.21656 0.45306,0.81838 0.19861,0.60181 0.46531,1.0942 0.59266,1.0942 0.12735,0 0.0975,-0.25053 -0.0664,-0.55674 -0.16985,-0.31735 -0.25917,-1.36968 -0.20775,-2.44739 0.0823,-1.72472 0.0438,-1.89725 -0.43895,-1.96569 -0.49115,-0.0696 -0.52829,0.073 -0.51687,1.98437 0.0128,2.14975 0.27608,3.51462 0.67784,3.51462 0.12974,0 0.2359,-0.045 0.2359,-0.1 z m -0.49874,-3.98783 c -0.0184,-0.79009 0.0647,-1.20997 0.20925,-1.05834 0.13458,0.14113 0.14792,0.71545 0.0304,1.30969 l -0.20925,1.05833 z m -11.90697,1.905 c 0.45708,-0.90951 1.05411,-1.96969 1.32672,-2.35595 0.27261,-0.38627 0.49566,-0.84937 0.49566,-1.02911 0,-0.17974 -0.30139,0.11731 -0.66975,0.66012 -0.65737,0.96869 -2.24067,3.96387 -2.24067,4.23874 0,0.44045 0.35207,-0.0494 1.08804,-1.5138 z m -22.93563,-0.001 c 0.31307,-0.89544 -0.077,-1.38642 -0.8951,-1.12676 -0.59959,0.19031 -1.18654,1.32052 -0.91442,1.76081 0.0875,0.14164 0.47315,0.22095 0.85691,0.17623 0.48565,-0.0566 0.77523,-0.3029 0.95261,-0.81028 z m 16.0411,-0.15875 c 1.44957,-0.93093 3.12931,-2.40962 2.74376,-2.41535 -0.15654,-0.002 -0.57326,0.30685 -0.92605,0.68705 -0.35278,0.3802 -1.26651,1.04641 -2.03049,1.48047 -0.76398,0.43405 -1.38906,0.83735 -1.38906,0.89622 0,0.25963 0.50841,0.0538 1.60184,-0.64839 z m -7.27848,-0.95735 c 1.37106,-0.8035 1.5963,-1.31654 0.94276,-2.14738 -0.39806,-0.50605 -0.45777,-0.83416 -0.28843,-1.58496 0.11744,-0.52074 0.28348,-1.01675 0.36896,-1.10223 0.24217,-0.24217 0.18272,0.62028 -0.0927,1.34465 -0.19396,0.51015 -0.14275,0.74793 0.2346,1.08943 0.5417,0.49024 0.43738,0.76444 2.49716,-6.56375 1.09463,-3.89441 1.13297,-4.2125 0.49291,-4.0894 -0.34709,0.0667 -0.757,1.06387 -1.6372,3.98254 -0.6458,2.14143 -1.22871,3.83898 -1.29535,3.77233 -0.0666,-0.0666 0.12532,-0.92733 0.42659,-1.91262 0.30127,-0.9853 0.83718,-2.74396 1.19092,-3.90812 0.52677,-1.73366 0.74841,-2.13231 1.22486,-2.20309 0.81205,-0.12063 1.086,-1.03213 0.75065,-2.49762 -0.34339,-1.50058 -0.80761,-1.72078 -1.88573,-0.89446 -1.92877,1.47829 -2.11508,1.83201 -3.98041,7.55706 l -1.81794,5.57962 0.47368,1.78549 c 0.4445,1.67549 0.80237,2.44692 1.13513,2.44692 0.0785,0 0.64532,-0.2945 1.25952,-0.65445 z m 32.13497,-0.32455 c 0,-0.49137 -0.0853,-0.62907 -0.27326,-0.44112 -0.15029,0.15029 -0.19708,0.47176 -0.10398,0.71437 0.24508,0.63868 0.37724,0.54295 0.37724,-0.27325 z m -41.24139,-2.08506 c 0.21937,-2.42076 0.86719,-4.89415 1.8135,-6.92401 0.42401,-0.9095 0.72896,-1.65364 0.67767,-1.65364 -0.0513,0 -0.41061,0.54154 -0.7985,1.20342 -1.63815,2.79529 -3.25323,9.66677 -2.1893,9.31451 0.19892,-0.0659 0.39685,-0.83913 0.49663,-1.94028 z m 21.2551,-0.17713 c 0.23968,-0.57411 0.30124,-0.99219 0.14609,-0.99219 -0.14747,0 -0.26813,0.18451 -0.26813,0.41002 0,0.2255 -0.1922,0.79105 -0.42711,1.25677 -0.2349,0.46571 -0.30064,0.72769 -0.14609,0.58217 0.15456,-0.14552 0.46741,-0.71107 0.69524,-1.25677 z m -0.51655,-0.77699 0.12813,-0.87666 -0.26788,0.84687 c -0.14733,0.46578 -0.38505,0.91929 -0.52827,1.00781 -0.14321,0.0885 -0.26039,0.35899 -0.26039,0.60106 0,0.75075 0.78237,-0.57994 0.92841,-1.57908 z m 15.83591,0.0643 c 2.01329,-0.78432 3.00851,-1.70051 3.61426,-3.32727 0.26991,-0.72483 0.96235,-2.56803 1.53878,-4.096 1.35354,-3.58794 1.72311,-5.97825 1.58116,-10.22655 -0.0917,-2.74516 -0.22342,-3.64381 -0.68423,-4.66883 -0.69422,-1.5442 -1.38638,-2.45023 -2.49888,-3.27101 l -0.84285,-0.62183 -0.29062,1.14457 c -0.4488,1.76755 -1.58054,3.49453 -2.6103,3.98318 -1.34727,0.63932 -3.76345,0.56314 -5.2011,-0.16401 -1.71781,-0.86884 -2.58918,-2.28927 -3.11589,-5.0792 l -0.43868,-2.32361 -1.67248,0.17135 c -2.72796,0.27949 -6.71862,2.08085 -7.60428,3.43253 -0.22591,0.34478 -0.86495,2.63539 -1.42009,5.09025 -0.55514,2.45485 -1.34792,5.72479 -1.76172,7.26652 -0.74292,2.76798 -0.7466,2.81824 -0.29307,4.00579 0.68618,1.79676 1.94417,3.56982 3.92656,5.53429 3.14914,3.12067 5.87048,3.96242 12.38619,3.83122 3.24686,-0.0654 4.07479,-0.1701 5.38724,-0.68139 z m -1.02161,-7.87551 c -2.10071,-0.2868 -7.203,-1.55611 -10.05417,-2.5012 -3.22045,-1.0675 -4.16213,-1.59169 -3.69282,-2.05563 0.52318,-0.51721 9.7287,-4.28909 10.5229,-4.31167 0.87222,-0.0248 1.68979,0.74994 6.54955,6.20649 2.29803,2.58023 2.24657,2.86405 -0.5095,2.81003 -1.11221,-0.0218 -2.3794,-0.0884 -2.81596,-0.14802 z m 4.48829,-0.32593 c 0.29107,-0.47096 -6.90715,-8.21766 -7.63583,-8.21766 -0.5793,0 -9.87899,3.90546 -10.08205,4.23402 -0.16313,0.26394 3.40554,1.57171 6.90903,2.53187 4.88167,1.33786 10.41954,2.08167 10.80885,1.45177 z m -1.77631,-6.65136 c -0.62272,-0.36269 -0.61727,-2.11094 0.009,-2.88434 0.26139,-0.3228 0.80711,-0.60152 1.22297,-0.62462 0.56232,-0.0312 0.9454,-0.32417 1.52507,-1.1662 0.87722,-1.27424 1.27786,-1.42264 1.27786,-0.47333 0,0.64669 -0.90109,1.7301 -1.43895,1.7301 -0.16127,0 -0.28084,0.57321 -0.28084,1.3463 0,1.09565 -0.11628,1.44045 -0.62462,1.85208 -0.70198,0.56843 -1.021,0.60995 -1.69048,0.22001 z m -15.1324,-3.47726 c -0.51405,-0.73392 -0.52062,-1.3446 -0.0248,-2.30345 0.41415,-0.80088 0.88665,-1.07726 1.84163,-1.07726 0.47491,0 0.66637,-0.23138 0.9305,-1.12448 0.59078,-1.99757 1.60329,-2.59758 1.60329,-0.95011 0,0.55547 -0.26624,1.07007 -0.8599,1.66202 -0.75861,0.75643 -0.85046,1.00099 -0.77982,2.07628 0.0622,0.94705 -0.041,1.33996 -0.46302,1.76195 -0.71472,0.71472 -1.73001,0.69441 -2.24789,-0.045 z m -9.33075,2.33055 c 0.55345,-2.07701 0.55909,-1.91743 -0.0737,-2.08289 -0.43513,-0.11379 -0.57432,0.0521 -0.80669,0.96133 -0.15445,0.60436 -0.39405,1.44403 -0.53246,1.86593 -0.32762,0.99867 -0.34472,0.9527 0.35448,0.9527 0.52178,0 0.66906,-0.23615 1.05833,-1.69707 z m -4.35665,-1.97592 c 2.3144,-1.5562 2.31463,-1.55628 2.92957,-1.05833 0.87623,0.70952 2.039,0.65904 2.24169,-0.0973 0.27516,-1.02676 0.18633,-1.25677 -0.48538,-1.25677 -1.78248,0 -1.73926,-4.35997 0.0636,-6.41615 0.51486,-0.5872 1.62219,-0.59792 2.04492,-0.0198 0.28509,0.38989 0.3634,0.32409 0.65084,-0.54687 0.29071,-0.88083 0.27276,-1.03099 -0.16262,-1.36084 -0.26916,-0.20391 -0.81681,-0.37454 -1.21699,-0.37917 l -0.7276,-0.008 v -2.11692 c 0,-1.16417 -0.10633,-2.116667 -0.23628,-2.116667 -0.39532,0 -0.55747,0.752449 -0.55747,2.586847 0,1.49074 -0.0951,1.84991 -0.64249,2.42576 -0.35337,0.37177 -0.97074,1.33078 -1.37193,2.13114 -0.62109,1.23902 -0.73431,1.80644 -0.76215,3.81941 l -0.0327,2.36419 -1.32305,1.07539 c -0.72767,0.59146 -1.7327,1.39722 -2.23339,1.79057 -1.59252,1.2511 -0.57517,0.79517 1.82142,-0.8163 z m 36.47949,-2.21399 c 1.83738,-3.08603 2.0255,-3.64776 1.86358,-5.56459 -0.16181,-1.91553 -0.91434,-4.04718 -2.07471,-5.87689 -0.67929,-1.071125 -0.86349,-1.220249 -1.06422,-0.861561 -0.16961,0.303081 -0.0806,0.697221 0.29557,1.308251 0.76072,1.23579 1.8529,4.80565 1.8529,6.05631 0,1.02465 -0.83672,3.02828 -1.88602,4.51631 -0.41715,0.59158 -0.71934,2.60499 -0.39097,2.60499 0.0573,0 0.68908,-0.98227 1.40387,-2.18282 z m -9.44938,-1.47445 c 1.0202,-0.75521 1.79335,-2.05395 2.13707,-3.58986 0.39346,-1.75815 -0.13669,-3.82034 -1.408,-5.47686 -1.43057,-1.864045 -2.10195,-2.224972 -4.13875,-2.224972 -1.53763,0 -1.919,0.100579 -2.73164,0.720412 -1.49457,1.13996 -2.15207,2.78122 -1.99479,4.97939 0.15209,2.12571 1.16416,4.45807 2.27888,5.25182 1.619,1.15283 4.5309,1.32189 5.85723,0.34007 z m -4.53443,-1.10997 c -1.80515,-0.95369 -2.99755,-3.9936 -2.37783,-6.06204 0.91511,-3.05436 3.8089,-4.01179 6.27126,-2.07489 1.69339,1.33202 2.2941,5.06204 1.1025,6.84577 -1.15118,1.72321 -3.18383,2.24853 -4.99593,1.29116 z m 3.8731,-0.56885 c 2.2508,-1.77048 1.78906,-6.07899 -0.80998,-7.558 -1.21654,-0.69229 -1.90955,-0.74028 -3.15785,-0.21871 -1.43815,0.6009 -2.02688,1.78924 -1.92305,3.88162 0.0683,1.37593 0.24326,1.98547 0.82028,2.8574 0.84496,1.27683 1.42096,1.57117 3.12031,1.59451 0.87037,0.012 1.43053,-0.14798 1.95029,-0.55682 z m -1.83716,-0.46646 c -0.18073,-0.29243 0.23664,-0.60819 0.48096,-0.36387 0.25156,0.25156 0.20468,0.61017 -0.0798,0.61017 -0.13693,0 -0.31747,-0.11084 -0.40119,-0.2463 z m -2.52484,-0.81204 c 0,-0.14552 0.11906,-0.26458 0.26458,-0.26458 0.14552,0 0.26458,0.11906 0.26458,0.26458 0,0.14553 -0.11906,0.26459 -0.26458,0.26459 -0.14552,0 -0.26458,-0.11906 -0.26458,-0.26459 z m 0.54837,-0.69714 c -0.8572,-1.08975 -0.83636,-2.79089 0.0458,-3.73463 1.44704,-1.54812 3.39326,0.31107 3.11591,2.97657 -0.15754,1.51401 -2.18472,2.00006 -3.16167,0.75806 z m -16.94206,1.71657 c 0.33392,-1.24011 0.18394,-1.87117 -0.39217,-1.6501 -0.55957,0.21473 -0.99258,1.89242 -0.65247,2.52793 0.3649,0.68182 0.70064,0.39969 1.04464,-0.87783 z m 3.58212,-7.52351 c 1.30956,-2.297977 1.31265,-2.308486 0.80272,-2.73169 -0.2978,-0.247153 -0.59778,0.0886 -1.5875,1.77679 -1.25936,2.14812 -1.45965,2.83149 -0.88959,3.03509 0.43074,0.15383 0.32978,0.27926 1.67437,-2.08019 z m -3.58729,-3.159603 c 0.18407,-0.221798 0.25247,-0.485476 0.15199,-0.585954 -0.22068,-0.220684 -1.01078,0.242384 -1.15579,0.677396 -0.15073,0.452189 0.61015,0.382876 1.0038,-0.09144 z m 10.23846,-2.551994 c 0.8416,-0.297095 2.24456,-0.696735 3.11769,-0.888087 1.31336,-0.287835 1.42759,-0.352049 0.66146,-0.371861 -0.50933,-0.01318 -1.40229,-0.09203 -1.98438,-0.175237 -0.69944,-0.09999 -0.93866,-0.06663 -0.70542,0.09838 0.28475,0.201446 0.26779,0.282342 -0.0878,0.418788 -0.24239,0.09301 -0.6553,0.169111 -0.91759,0.169111 -0.50244,0 -4.28407,1.842942 -5.14149,2.505657 -0.41162,0.318143 -0.4425,0.460246 -0.17112,0.787241 0.2877,0.34666 0.55209,0.241367 2.0148,-0.802399 0.926,-0.660784 2.37222,-1.444501 3.21383,-1.741596 z m -0.34107,-3.527258 c 1.04085,-1.877769 2.20963,-4.961269 2.90839,-7.672917 0.96438,-3.742438 1.52302,-8.293348 0.97658,-7.955632 -0.2511,0.155187 -2.69788,4.4206 -3.81809,6.655958 -0.49744,0.992638 -0.72172,1.965408 -0.85405,3.704167 -0.0987,1.296903 -0.34459,3.169463 -0.54645,4.161243 -0.472,2.319152 -0.46938,2.350151 0.18999,2.250062 0.32656,-0.04957 0.79969,-0.522388 1.14363,-1.142881 z"
       id="path854" />
  </g>
</svg>
